    <svg
      xmlns="http://www.w3.org/2000/svg"
      fill="currentColor"
      version="1.1"
      viewBox="0 0 514.811 266.275"
      xmlSpace="preserve"
    >
      <g transform="translate(.001 -125.269)">
        <g>
          <g>
            <path d="M127.858 270.334c5.12 0 8.533-3.413 8.533-8.533 0-5.12-3.413-8.533-8.533-8.533-5.12 0-8.533 3.413-8.533 8.533 0 5.12 3.413 8.533 8.533 8.533z"></path>
            <path d="M127.858 236.201c5.12 0 8.533-3.413 8.533-8.533 0-5.12-3.413-8.533-8.533-8.533-5.12 0-8.533 3.413-8.533 8.533 0 5.12 3.413 8.533 8.533 8.533z"></path>
            <path d="M505.885 267.774a9.276 9.276 0 00-.853-1.227v-1.333c0-5.973-5.12-12.8-14.507-17.067-13.653-6.827-36.693-11.093-70.827-11.093h-2.56c-9.387 0-19.627 0-29.867-1.707-15.36-2.56-24.747-8.533-26.453-15.36-.853-2.56-2.56-4.267-4.267-5.973-.853 0-1.707-.853-2.56-.853-2.56-.853-4.267-.853-6.827-.853-2.56 0-5.12.853-7.68 1.707l-6.827-5.12-2.56-5.12c-5.12-9.387-14.507-12.8-24.747-7.68l-5.973-2.56c-.773-.773-.852-2.238-1.492-3.143a8.867 8.867 0 00-2.896-3.666c-4.436-4.48-10.832-6.374-17.799-4.284-1.707-.853-2.56-1.707-4.267-2.56-1.707-1.707-3.413-2.56-4.267-3.413-.854-.853-.853-2.56-1.707-4.267-4.267-6.827-11.947-9.387-19.627-5.12-.853 0-1.707 0-2.56-.853-3.413-1.707-7.68-5.12-11.947-11.093-7.68-11.093-23.893-19.627-37.547-19.627-17.067 0-26.453 13.653-22.187 34.133-1.707 1.707-3.413 3.413-5.973 5.12-10.24 6.827-25.6 10.24-46.933 8.533-.853 0-2.56 0-4.267-.853-3.413-.853-7.68-2.56-11.093-3.413-4.267-2.56-8.533-5.12-10.24-7.68-6.827-8.533-21.333-14.507-34.987-14.507-4.869 0-9.389.697-13.306 2.067-11.548-2.373-20.827-13.075-20.827-25.107 0-5.12-3.413-8.533-8.533-8.533-5.12 0-8.533 3.413-8.533 8.533 0 17.249 9.786 31.825 24.217 38.601-.039.141-.068.285-.104.427-.052.22-.104.439-.149.663a17.862 17.862 0 00-.393 3.718l-.001.024.002.162a25.455 25.455 0 00.322 4.192c.59 5.897.771 10.162.546 12.799-.245.688-.546 1.2-.546 1.708-1.707.853-2.56.853-3.413 1.707-2.56 3.413-6.827 9.387-10.24 17.92-9.387 20.48-13.653 43.52-6.827 67.413v.81c-1.164.946-2.36 2.052-3.413 3.456-8.533 8.533-11.093 21.333-2.56 34.133-.853.853-.853.853-.853 1.707-5.12 9.387-6.827 18.773-2.56 28.16 5.973 16.213 27.307 26.453 64.853 30.72 2.56 0 4.267-.853 6.827-1.707.853-.853 2.56-1.707 5.12-3.413 4.267-2.56 7.68-3.413 11.093-3.413 4.267 0 6.827 3.413 10.24 11.093 1.707 3.413 5.12 5.973 9.387 5.12.853 0 2.56 0 5.12-.853 4.267-.853 9.387-1.707 14.507-2.56 14.507-2.56 29.013-5.973 43.52-10.24 11.093-3.413 21.333-6.827 30.72-11.093.853 0 3.413-.853 6.827-1.707 4.267-.853 8.533-1.707 11.947-1.707 5.973-.853 10.24.853 11.093 1.707 6.827 7.68 27.307 18.773 44.373 23.893 23.04 6.827 41.813 3.413 51.2-13.653 1.707 0 2.56 0 4.267.853 2.56.853 4.267 2.56 5.12 6.827.853 2.56 2.56 4.267 4.267 5.12 1.707.853 4.267 1.707 7.68 2.56 7.68 2.56 15.36 3.413 23.893 1.707 11.093-1.707 19.627-7.68 25.6-17.067l4.267-1.707c1.707.853 2.56 1.707 4.267 2.56 6.827 3.413 14.507 5.973 22.187 5.12 10.24-.853 19.627-6.827 24.747-18.773l7.68-5.12h5.973c.853 0 1.707 0 2.56-.853 5.12-2.56 12.8-6.827 21.333-13.653 22.187-18.775 29.013-44.375 12.8-73.389zm-465.92-56.32l1.707-1.707c1.707-.853 2.56-2.56 3.413-4.267 2.352-4.116 3.488-9.448 3.409-16.273-.02-3.021-.267-6.374-.732-10.087 18.698 14.512 28.897 37.504 28.897 61.347 0 18.717-6.789 36.584-18.669 51.068a70.433 70.433 0 01-2.653-.647 249.367 249.367 0 01-11.818-3.955c-4.835-1.922-10.047-4.326-15.5-7.214a80.322 80.322 0 01-2.61-21.792c.251-12.321 3.251-24.185 8.583-35.382 1.706-4.264 4.266-7.677 5.973-11.091zm40.107-30.72c4.267 5.12 10.24 9.387 17.067 12.8 7.68 3.413 15.36 5.12 20.48 5.973 25.6 2.56 44.373-1.707 58.027-11.093 6.827-4.267 11.093-9.387 13.653-12.8.853-1.707 1.707-4.267.853-5.973-3.413-13.653-.853-17.067 5.12-17.067 7.68 0 18.773 5.973 23.04 12.8 6.107 9.16 12.82 14.676 19.235 17.458l-19.235 19.235c-3.413 3.413-3.413 8.533 0 11.947 3.413 3.414 8.533 3.413 11.947 0l26.17-26.17a46.154 46.154 0 006.257 5.69c3.941 2.365 7.144 4.711 9.629 5.731l-20.722 20.722c-3.413 3.413-3.413 8.533 0 11.947 3.413 3.414 8.533 3.413 11.947 0l24.598-24.598 10.388 6.678c.388.194.788.363 1.195.512l-17.408 17.408c-3.413 3.413-3.413 8.533 0 11.947 3.413 3.413 8.533 3.413 11.947 0l23.359-23.359c.17.115.345.224.535.319l16.213 11.947c3.413 2.56 10.24-3.413 11.947-1.707 5.973 11.093 19.627 17.92 36.693 20.48 11.093 1.707 23.04 2.56 33.28 1.707h2.56c31.573 0 52.053 3.413 63.147 9.387 2.56 1.707 4.267 2.56 5.12 4.267 0 0-.853 1.707-1.707 2.56-1.707 3.413-4.267 6.827-5.973 9.387-1.707 2.56-2.56 4.267-4.267 5.973-1.707 2.56-3.413 4.267-5.12 5.12l-1.707.853c-.853.853-2.56 2.56-5.973 5.12-5.12 4.267-11.947 8.533-20.48 12.8-51.2 25.6-127.147 28.16-232.107-8.533-2.56-.853-9.387-3.413-17.92-5.12-28.16-5.12-64.853-6.827-111.787-.853-.534 0-1.116-.001-1.737-.007 10.546-15.802 16.243-34.513 16.243-53.753 0-25.01-9.652-48.491-25.81-66.149 5.343 1.368 9.686 3.72 11.303 6.414zm399.36 145.92c-3.413 3.413-7.68 5.973-11.947 8.533-1.707.853-2.56 1.707-3.413 1.707l-6.827.853c-1.707 0-2.56.853-4.267 1.707l-11.947 7.68c-1.707.853-2.56 2.56-3.413 4.267-3.413 7.68-6.827 10.24-11.093 11.093-3.413 0-8.533-.853-12.8-3.413-2.56-1.707-4.267-2.56-5.973-3.413-2.56-1.707-5.12-2.56-7.68-1.707l-11.947 4.267c-2.56.853-4.267 2.56-5.12 4.267-3.413 6.827-7.68 10.24-14.507 11.093-5.12.853-11.093 0-16.213-1.707-.853 0-1.707-.853-1.707-.853-3.413-6.827-8.533-11.093-14.507-12.8-5.12-1.707-10.24-1.707-15.36-.853-.853 0-2.56.853-2.56.853-2.56.853-4.267 2.56-5.12 5.12-3.413 10.24-14.507 12.8-32.427 7.68-14.507-4.267-31.573-13.653-36.693-18.773-5.973-5.973-14.507-8.533-24.747-7.68-5.12 0-9.387.853-14.507 2.56-4.267.853-6.827 1.707-8.533 2.56-8.533 4.267-17.92 7.68-29.013 10.24-12.8 4.267-27.307 6.827-41.813 10.24l-12.8 2.56c-5.12-9.387-12.8-14.507-21.333-15.36-6.827-.853-14.507 1.707-21.333 5.12-1.707.853-3.413 1.707-4.267 2.56-29.013-3.413-43.52-11.093-46.933-19.627-1.707-4.267-.853-8.533 1.707-13.653.853-1.707 2.56-3.413 2.56-4.267 2.56-3.413 2.56-7.68 0-11.093-6.827-8.533-5.973-14.507-1.707-19.627 16.213 6.827 29.867 11.093 41.813 13.653 8.533 1.707 15.36 2.56 20.48 2.56l.133-.014c.237.003.49.014.72.014 21.304-2.367 40.232-3.455 57.047-3.437 19.189.063 35.603 1.578 49.62 4.291 5.12.853 8.533 1.707 11.947 2.56 1.707.853 3.413.853 3.413.853 56.352 19.811 104.982 28.72 146.475 28.835 37.624.118 69.445-7.028 95.813-19.854.879-.427 1.752-.861 2.618-1.301 15.36-7.68 25.6-15.36 30.72-21.333 2.56-1.707 5.12-4.267 7.68-7.68 1.707-1.707 3.413-4.267 5.12-6.827 3.414 14.506-2.559 26.453-15.359 37.546z"></path>
            <path d="M218.312 286.548c49.493 17.067 94.72 26.453 134.827 26.453 5.12 0 8.533-3.413 8.533-8.533 0-5.973-4.267-9.387-8.533-9.387-37.547 0-81.067-8.533-128.853-24.747-4.267-1.707-9.387.853-11.093 5.12-1.706 4.267.852 9.387 5.119 11.094z"></path>
          </g>
        </g>
      </g>
    </svg>